<svg width="27" height="24" viewBox="0 0 27 24" fill="none" xmlns="http://www.w3.org/2000/svg">
<g id="Group">
<path id="Vector" d="M4.14794 15.6616H5.89008C6.55681 15.6616 7.19623 15.3968 7.66768 14.9253C8.13913 14.4539 8.40399 13.8145 8.40399 13.1477V10.5647C8.40399 9.89796 8.13913 9.25854 7.66768 8.78709C7.19623 8.31564 6.55681 8.05078 5.89008 8.05078H4.14794C3.48122 8.05078 2.84179 8.31564 2.37035 8.78709C1.8989 9.25854 1.63404 9.89796 1.63404 10.5647V13.1477C1.63404 13.8145 1.8989 14.4539 2.37035 14.9253C2.84179 15.3968 3.48122 15.6616 4.14794 15.6616ZM2.89099 10.5647C2.89099 10.2313 3.02342 9.91161 3.25914 9.67589C3.49487 9.44016 3.81458 9.30774 4.14794 9.30774H5.89008C6.22345 9.30774 6.54316 9.44016 6.77888 9.67589C7.01461 9.91161 7.14703 10.2313 7.14703 10.5647V13.1477C7.14703 13.4811 7.01461 13.8008 6.77888 14.0365C6.54316 14.2723 6.22345 14.4047 5.89008 14.4047H4.14794C3.81458 14.4047 3.49487 14.2723 3.25914 14.0365C3.02342 13.8008 2.89099 13.4811 2.89099 13.1477V10.5647ZM9.18833 18.7651C9.05498 18.8651 8.88737 18.908 8.72236 18.8844C8.55735 18.8609 8.40847 18.7727 8.30846 18.6394C8.08969 18.3459 7.80515 18.1079 7.4777 17.9444C7.15026 17.7809 6.78903 17.6965 6.42303 17.6979H3.615C2.98969 17.6989 2.39031 17.9478 1.94827 18.3901C1.50623 18.8324 1.25762 19.4319 1.25695 20.0572V21.2186C2.46347 21.6393 3.74064 21.82 5.0165 21.7503C5.81533 21.7683 6.61425 21.7187 7.40471 21.602C7.56906 21.574 7.7378 21.6124 7.87381 21.7088C8.00983 21.8052 8.10197 21.9517 8.12997 22.1161C8.15798 22.2804 8.11954 22.4492 8.02313 22.5852C7.92672 22.7212 7.78023 22.8133 7.61588 22.8414C6.75656 22.9705 5.88778 23.026 5.01901 23.0073C3.42204 23.1062 1.82426 22.8267 0.355718 22.1915C0.249239 22.1402 0.159382 22.0599 0.0964613 21.9599C0.0335411 21.8598 0.000107916 21.7441 0 21.6259V20.0572C0.000998213 19.0987 0.382184 18.1798 1.05991 17.5021C1.73764 16.8244 2.65655 16.4432 3.615 16.4422H6.418C6.97922 16.4395 7.53321 16.5687 8.03536 16.8194C8.5375 17.07 8.97376 17.4351 9.30899 17.8852C9.40914 18.0184 9.45229 18.1859 9.42895 18.3509C9.40561 18.5159 9.31771 18.6649 9.18456 18.7651H9.18833ZM26.396 20.0572V21.6259C26.3961 21.7438 26.3631 21.8594 26.3006 21.9594C26.2382 22.0594 26.1488 22.1399 26.0428 22.1915C24.5743 22.8267 22.9765 23.1062 21.3795 23.0073C20.5107 23.026 19.642 22.9705 18.7826 22.8414C18.7013 22.8275 18.6234 22.7978 18.5535 22.7538C18.4836 22.7099 18.4231 22.6526 18.3753 22.5852C18.3276 22.5179 18.2936 22.4418 18.2753 22.3613C18.257 22.2808 18.2547 22.1975 18.2686 22.1161C18.2987 21.9528 18.3913 21.8077 18.5267 21.7117C18.6622 21.6157 18.8298 21.5763 18.9938 21.602C19.7843 21.7187 20.5832 21.7683 21.382 21.7503C22.6571 21.8196 23.9333 21.639 25.1391 21.2186V20.0572C25.1381 19.4321 24.8893 18.8329 24.4473 18.3909C24.0053 17.9489 23.4061 17.7002 22.781 17.6992H19.978C19.612 17.6977 19.2508 17.7822 18.9233 17.9457C18.5959 18.1092 18.3114 18.3472 18.0926 18.6406C18.0431 18.7066 17.981 18.7623 17.91 18.8043C17.839 18.8464 17.7604 18.874 17.6787 18.8857C17.597 18.8974 17.5138 18.8928 17.4338 18.8723C17.3539 18.8519 17.2787 18.8158 17.2127 18.7663C17.1467 18.7168 17.0911 18.6548 17.049 18.5837C17.007 18.5127 16.9793 18.4341 16.9676 18.3524C16.956 18.2707 16.9605 18.1875 16.981 18.1076C17.0015 18.0276 17.0375 17.9525 17.087 17.8864C17.4222 17.4363 17.8585 17.0713 18.3607 16.8206C18.8628 16.57 19.4168 16.4408 19.978 16.4435H22.781C23.7393 16.4445 24.658 16.8255 25.3357 17.5029C26.0133 18.1804 26.3947 19.099 26.396 20.0572ZM12.5846 11.7802C12.0179 11.7802 11.4744 12.0053 11.0737 12.406C10.6729 12.8068 10.4478 13.3503 10.4478 13.917V15.7886C10.4478 16.3553 10.6729 16.8988 11.0737 17.2995C11.4744 17.7003 12.0179 17.9254 12.5846 17.9254H13.8114C14.3781 17.9254 14.9216 17.7003 15.3224 17.2995C15.7231 16.8988 15.9482 16.3553 15.9482 15.7886V13.917C15.9482 13.3503 15.7231 12.8068 15.3224 12.406C14.9216 12.0053 14.3781 11.7802 13.8114 11.7802H12.5846ZM14.6913 13.917V15.7886C14.6913 16.0219 14.5986 16.2457 14.4336 16.4107C14.2686 16.5758 14.0448 16.6685 13.8114 16.6685H12.5846C12.3513 16.6685 12.1275 16.5758 11.9625 16.4107C11.7974 16.2457 11.7047 16.0219 11.7047 15.7886V13.917C11.7047 13.6836 11.7974 13.4598 11.9625 13.2948C12.1275 13.1298 12.3513 13.0371 12.5846 13.0371H13.8114C14.0448 13.0371 14.2686 13.1298 14.4336 13.2948C14.5986 13.4598 14.6913 13.6836 14.6913 13.917ZM14.2752 18.6456H12.1208C11.3447 18.646 10.6005 18.9543 10.0516 19.503C9.5027 20.0517 9.19402 20.7957 9.19335 21.5718V22.7785C9.19335 22.8966 9.22659 23.0122 9.28928 23.1123C9.35197 23.2123 9.44157 23.2927 9.54781 23.3441C10.6954 23.8419 11.9444 24.0616 13.193 23.9852C14.4416 24.0616 15.6905 23.8419 16.8381 23.3441C16.9444 23.2927 17.034 23.2123 17.0967 23.1123C17.1594 23.0122 17.1926 22.8966 17.1926 22.7785V21.5718C17.1919 20.7975 16.8846 20.0549 16.3379 19.5065C15.7912 18.9582 15.0496 18.6486 14.2752 18.6456ZM15.9457 22.3662C15.0603 22.6568 14.1285 22.7795 13.198 22.7282C12.2676 22.7795 11.3357 22.6568 10.4503 22.3662V21.5718C10.451 21.1291 10.6272 20.7047 10.9404 20.3918C11.2536 20.0789 11.6781 19.9029 12.1208 19.9026H14.2752C14.7179 19.9029 15.1424 20.0789 15.4556 20.3918C15.7688 20.7047 15.945 21.1291 15.9457 21.5718V22.3662ZM17.992 13.1477C17.992 13.8145 18.2569 14.4539 18.7283 14.9253C19.1998 15.3968 19.8392 15.6616 20.5059 15.6616H22.2481C22.9148 15.6616 23.5542 15.3968 24.0257 14.9253C24.4971 14.4539 24.762 13.8145 24.762 13.1477V10.5647C24.762 9.89796 24.4971 9.25854 24.0257 8.78709C23.5542 8.31564 22.9148 8.05078 22.2481 8.05078H20.5059C19.8392 8.05078 19.1998 8.31564 18.7283 8.78709C18.2569 9.25854 17.992 9.89796 17.992 10.5647V13.1477ZM19.249 10.5647C19.249 10.2313 19.3814 9.91161 19.6171 9.67589C19.8529 9.44016 20.1726 9.30774 20.5059 9.30774H22.2481C22.5814 9.30774 22.9011 9.44016 23.1369 9.67589C23.3726 9.91161 23.505 10.2313 23.505 10.5647V13.1477C23.505 13.4811 23.3726 13.8008 23.1369 14.0365C22.9011 14.2723 22.5814 14.4047 22.2481 14.4047H20.5059C20.1726 14.4047 19.8529 14.2723 19.6171 14.0365C19.3814 13.8008 19.249 13.4811 19.249 13.1477V10.5647ZM11.9033 8.31726C12.2943 8.55217 12.7419 8.67627 13.198 8.67627C13.6541 8.67627 14.1017 8.55217 14.4927 8.31726C17.7344 6.37652 18.2183 4.27615 18.2183 3.19769C18.2457 2.80165 18.1941 2.40412 18.0665 2.0282C17.9389 1.65228 17.7379 1.30547 17.4751 1.00793C17.2123 0.710393 16.893 0.468063 16.5357 0.295029C16.1784 0.121994 15.7903 0.0217083 15.3939 0C14.5932 0.000404297 13.8173 0.277987 13.198 0.785596C12.5787 0.277987 11.8028 0.000404297 11.0021 0C10.6061 0.0217239 10.2183 0.121891 9.86125 0.294689C9.50423 0.467486 9.18508 0.709472 8.92232 1.0066C8.65957 1.30373 8.45845 1.65009 8.33063 2.02557C8.20281 2.40106 8.15084 2.79819 8.17774 3.19392C8.17774 4.27615 8.66166 6.37652 11.9033 8.31726ZM11.0021 1.25695C11.3245 1.25795 11.6428 1.32867 11.9353 1.46427C12.2278 1.59987 12.4874 1.79715 12.6965 2.04255C12.7576 2.11678 12.8343 2.17657 12.9213 2.21762C13.0082 2.25867 13.1031 2.27995 13.1993 2.27995C13.2954 2.27995 13.3903 2.25867 13.4773 2.21762C13.5642 2.17657 13.641 2.11678 13.702 2.04255C13.9123 1.79955 14.172 1.60414 14.4637 1.46933C14.7555 1.33453 15.0725 1.26341 15.3939 1.26072C15.6238 1.28473 15.8466 1.35377 16.0498 1.46392C16.253 1.57407 16.4325 1.72315 16.578 1.90267C16.7236 2.08219 16.8323 2.28862 16.8981 2.51017C16.9639 2.73172 16.9854 2.96406 16.9613 3.19392C16.9613 4.57657 15.8301 6.04971 13.8479 7.23628C13.6507 7.35172 13.4264 7.41257 13.198 7.41257C12.9696 7.41257 12.7453 7.35172 12.5482 7.23628C10.5697 6.05348 9.43469 4.57657 9.43469 3.19392C9.41013 2.96377 9.43122 2.73103 9.49674 2.50904C9.56227 2.28705 9.67094 2.08017 9.81654 1.90024C9.96214 1.72032 10.1418 1.57088 10.3452 1.4605C10.5487 1.35011 10.7719 1.28094 11.0021 1.25695Z" fill="#225165"/>
</g>
</svg>
