<svg width="44" height="45" viewBox="0 0 44 45" fill="none" xmlns="http://www.w3.org/2000/svg">
<g id="Group 1261154379">
<path id="Vector" d="M4.27198 34.8241H39.7274C42.0432 34.8241 43.9398 32.9675 43.9997 30.6517H0.0099739C0.0598831 32.9675 1.95619 34.8241 4.27198 34.8241Z" fill="#366880"/>
<path id="Vector_2" d="M6.04904 20.3508C6.04904 16.388 8.7142 12.8342 12.5173 11.7265L14.7033 11.0876C13.8948 9.77998 13.4157 8.24281 13.4157 6.58579C13.4157 6.20648 13.4356 5.82718 13.4855 5.45786H4.27222C1.91651 5.45786 0 7.37438 0 9.74005V28.6554H6.04902L6.04904 20.3508Z" fill="#366880"/>
<path id="Vector_3" d="M39.7278 5.45823H30.5145C30.5644 5.82756 30.5843 6.20688 30.5843 6.58616C30.5843 8.23315 30.1052 9.77038 29.2967 11.088L31.4827 11.7268C35.2958 12.8348 37.951 16.3884 37.951 20.3511V28.656H44V9.74068C44 7.375 42.0835 5.45823 39.7278 5.45823Z" fill="#366880"/>
<path id="Vector_4" d="M28.6306 40.7883V36.813H15.3696V40.7883C14.1368 41.0927 13.2185 42.2007 13.2185 43.5283V44.9133H30.7839V43.5283C30.7815 42.1983 29.8633 41.0927 28.6306 40.7883Z" fill="#366880"/>
<path id="Vector_5" d="M28.1288 20.9999C28.1288 21.6487 28.6478 22.1778 29.2967 22.1778C29.9455 22.1778 30.4645 21.6487 30.4645 20.9999C30.4645 20.6605 30.3148 20.3511 30.0852 20.1514C29.8756 19.9518 29.6061 19.832 29.2966 19.832C29.1169 19.832 28.9373 19.872 28.7875 19.9518C28.3983 20.1415 28.1288 20.5407 28.1288 20.9999Z" fill="#366880"/>
<path id="Vector_6" d="M14.9029 20.0416C13.8948 20.0416 13.0762 20.8601 13.0762 21.8683V23.8646C13.0762 24.4136 12.637 24.8628 12.078 24.8628C11.529 24.8628 11.0799 24.4136 11.0799 23.8646V21.8683C11.0799 20.2213 12.1379 18.8238 13.6052 18.2848C13.3158 17.1269 13.1461 15.2603 14.1343 13.3338L13.0762 13.6432C10.0916 14.5117 8.04539 17.2466 8.04539 20.351V28.5562H35.9549V20.351C35.9549 17.2466 33.9087 14.5117 30.9241 13.6432L30.7145 13.5833C31.4731 15.6695 31.0339 17.8655 30.7145 18.9735C31.3533 19.4127 31.7725 20.1614 31.7725 20.9998C31.7725 22.3773 30.6645 23.4853 29.297 23.4853C27.9295 23.4853 26.8215 22.3773 26.8215 20.9998C26.8215 19.822 27.64 18.8338 28.748 18.5843C29.0375 17.646 29.6463 15.0507 28.2788 13.224L28.2189 13.1342C26.6119 14.7213 24.4159 15.6796 22.0002 15.6796C19.8342 15.6796 17.8478 14.911 16.3006 13.6034C15.0229 15.3901 15.3523 17.2467 15.6218 18.1152C17.3886 18.4545 18.7262 20.0017 18.7262 21.8683V23.8647C18.7262 24.4137 18.277 24.8629 17.728 24.8629C17.169 24.8629 16.7298 24.4137 16.7298 23.8647V21.8683C16.7298 20.8602 15.9111 20.0416 14.9029 20.0416Z" fill="#366880"/>
<path id="Vector_7" d="M28.5879 6.58577C28.5879 10.2241 25.6383 13.1735 22.0002 13.1735C18.3622 13.1735 15.4125 10.2238 15.4125 6.58577C15.4125 2.9499 18.3622 0 22.0002 0C25.6383 0 28.5879 2.94964 28.5879 6.58577Z" fill="#366880"/>
</g>
</svg>
