<svg width="24" height="24" viewBox="0 0 24 24" fill="none" xmlns="http://www.w3.org/2000/svg">
<g id="Group">
<path id="Vector" d="M2.69779 20.0569C2.25866 20.6428 1.74722 21.1812 1.18184 21.6365C0.996253 21.7994 0.557121 21.7584 1.11602 22.6173C1.70944 23.5365 1.9166 23.0284 2.12702 22.8654C2.81756 22.368 3.41747 21.7573 3.92565 21.0787C4.43383 20.3989 4.86434 19.6587 5.16538 18.8193C5.23767 18.6067 5.30025 18.3856 5.34773 18.1503C5.38873 17.9043 5.41678 17.6637 5.40815 17.4156C5.40276 16.9236 5.24847 16.3215 4.8255 15.8683C4.6464 15.6579 4.37235 15.4626 4.13497 15.3407C3.88896 15.2134 3.64079 15.1249 3.40018 15.0537C3.15741 14.9846 2.9168 14.9296 2.68158 14.8907C2.455 14.8497 2.27588 14.8077 2.0709 14.7613C1.69756 14.6728 1.15917 14.5681 1.1732 15.9492C1.18399 17.0821 1.69218 16.9548 2.03529 16.9602H2.61579C2.76792 16.9602 2.91357 16.9656 3.04629 16.9764C3.31388 16.998 3.51025 17.0703 3.56527 17.1059C3.63433 17.1555 3.64512 17.1609 3.68396 17.2159C3.71741 17.2656 3.74762 17.3433 3.76704 17.4479C3.80588 17.6766 3.78107 17.9151 3.69259 18.2075C3.50161 18.8204 3.12936 19.472 2.69562 20.0558L2.69779 20.0569Z" fill="#225165"/>
<path id="Vector_2" d="M10.1145 20.0569C9.67541 20.6428 9.16397 21.1812 8.59858 21.6365C8.413 21.7994 7.97387 21.7584 8.53277 22.6173C9.12619 23.5365 9.33335 23.0284 9.54377 22.8654C10.2343 22.368 10.8342 21.7573 11.3424 21.0787C11.8506 20.3989 12.2811 19.6587 12.5821 18.8193C12.6544 18.6067 12.717 18.3856 12.7645 18.1503C12.8055 17.9043 12.8335 17.6637 12.8249 17.4156C12.8195 16.9236 12.6652 16.3215 12.2423 15.8683C12.0631 15.6579 11.7891 15.4626 11.5517 15.3407C11.3057 15.2134 11.0575 15.1249 10.8169 15.0537C10.5742 14.9846 10.3336 14.9296 10.0983 14.8907C9.87175 14.8497 9.69262 14.8077 9.48765 14.7613C9.11431 14.6728 8.57592 14.5681 8.58995 15.9492C8.60074 17.0821 9.10893 16.9548 9.45204 16.9602H10.0325C10.1847 16.9602 10.3303 16.9656 10.463 16.9764C10.7306 16.998 10.927 17.0703 10.982 17.1059C11.0511 17.1555 11.0619 17.1609 11.1007 17.2159C11.1342 17.2656 11.1644 17.3433 11.1838 17.4479C11.2226 17.6766 11.1978 17.9151 11.1093 18.2075C10.9184 18.8204 10.5461 19.472 10.1124 20.0558L10.1145 20.0569Z" fill="#225165"/>
<path id="Vector_3" d="M1.22946 9.9779C2.36238 9.92827 2.23505 7.43153 2.24046 5.74629V4.31235C2.24046 4.17748 2.24909 4.11058 2.25125 4.02751C2.25125 3.94767 2.27067 3.86999 2.2793 3.79014C2.30412 3.63261 2.35159 3.48048 2.40878 3.33483C2.64399 2.74356 3.15434 2.26557 3.7564 2.05841C3.9053 2.00554 4.06283 1.97317 4.22359 1.95052L4.4642 1.93433H4.82027L6.25421 1.92031L9.12436 1.89225L10.3393 1.88146C10.1213 2.17386 10.4051 2.47488 10.4936 2.72414C10.6921 3.27118 10.8971 3.8182 11.1096 4.35986L11.4301 5.17231L11.593 5.57802C11.6459 5.71073 11.6977 5.84344 11.7754 6.01176C12.358 7.27953 13.6873 8.14919 15.0759 8.18587C17.4485 8.20745 19.7467 8.28837 22.0837 8.66602C22.1862 8.6822 22.2963 8.69946 22.4096 8.70702V11.4747V17.4738V18.9682C22.4063 19.3242 22.3243 19.6727 22.169 19.9899C21.8679 20.6308 21.2518 21.1088 20.5645 21.2631C20.4512 21.2847 20.3293 21.3074 20.1999 21.3041C20.1308 21.3041 20.0866 21.3074 19.9927 21.3041L19.7165 21.2955C19.3464 21.2869 18.9763 21.2847 18.6451 21.3117C17.9826 21.37 17.4712 21.5577 17.4302 22.0659C17.3859 22.6151 17.8747 22.8115 18.5296 22.8751C18.8587 22.9053 19.2288 22.9032 19.5935 22.8945C19.7845 22.8859 19.9442 22.8891 20.1492 22.873C20.3531 22.8643 20.5495 22.8395 20.7297 22.8071C21.8647 22.6302 22.8897 21.9008 23.4637 20.9039C23.7561 20.4065 23.9309 19.84 23.9752 19.2681C23.9968 18.9617 23.9914 18.7319 23.9946 18.487V17.7522L24 11.8826L23.9914 6.01307V4.54675V4.17991C23.986 4.03857 23.9806 3.8929 23.9698 3.75156C23.9342 3.46454 23.8759 3.18294 23.7821 2.90888C23.412 1.81482 22.5499 0.897705 21.4677 0.488769C21.2001 0.386269 20.9185 0.303186 20.6336 0.267582C20.3542 0.217949 20.037 0.220106 19.8136 0.217949L18.3473 0.212554L15.4136 0.193133L9.54737 0.118685L6.6137 0.0582627L5.14738 0.0194214L4.40182 0C4.09755 0 3.79114 0.0280524 3.49333 0.0938688C2.29135 0.345268 1.20594 1.14909 0.623178 2.2626C0.327545 2.81503 0.150602 3.43974 0.118229 4.07202L0.0459382 5.55776C-0.0425362 7.38122 -0.147197 10.0247 1.23388 9.96642L1.22946 9.9779ZM17.73 1.82404L19.1639 1.81864H19.8825H20.0562L20.1836 1.82727C20.2688 1.82727 20.3519 1.8413 20.435 1.85533C21.1341 1.95999 21.761 2.41856 22.1063 3.03463C22.2832 3.34106 22.3739 3.68956 22.3965 4.04021L22.4052 4.17293V4.35527V4.73076V5.48173V6.47329C22.3113 6.47329 22.2174 6.47652 22.1322 6.47329C19.8534 6.45171 17.5746 6.60816 15.2959 6.60816C15.2128 6.60816 15.1631 6.60816 15.1135 6.60276C15.0606 6.60276 15.011 6.59737 14.9592 6.59197C14.8567 6.58334 14.7553 6.56176 14.6549 6.53695C14.4564 6.48731 14.2654 6.40747 14.0885 6.30173C13.7324 6.09457 13.4389 5.78275 13.2544 5.41483C13.1768 5.26809 13.0559 4.94549 12.948 4.67682L12.6168 3.84817L11.9478 2.19088C11.909 2.09378 11.882 1.97833 11.8485 1.86719L14.8621 1.83913L17.7322 1.82295L17.73 1.82404Z" fill="#225165"/>
</g>
</svg>
