<svg width="24" height="25" viewBox="0 0 24 25" fill="none" xmlns="http://www.w3.org/2000/svg">
<g id="Group 1261154374">
<path id="Vector" d="M21.4853 7.79602C22.6625 7.79612 23.6196 8.75304 23.6196 9.93026V14.1727C23.6196 15.3853 23.3135 16.5896 22.7321 17.6537L21.8375 19.2937C21.325 20.2335 21.0531 21.297 21.0531 22.3685V24.4727C21.0531 24.7067 20.8639 24.8958 20.6298 24.8959H13.7929C13.5589 24.8958 13.3696 24.7067 13.3696 24.4727V23.5181C13.3696 22.7756 13.2588 22.0396 13.0384 21.3299C12.4668 19.4871 13.0639 17.5077 14.5613 16.2899L17.8402 13.6214C18.2759 13.2675 18.8317 13.1422 19.3511 13.2262V9.93126C19.3511 8.78853 20.2527 7.85693 21.3823 7.80303V7.79602H21.4853ZM21.4833 8.64051C20.7733 8.64051 20.1958 9.21831 20.1956 9.92826V13.5864C20.273 13.6456 20.3471 13.71 20.4167 13.7825C21.0985 14.4948 21.1194 15.6289 20.4647 16.365L17.9503 19.1916L17.9513 19.1926C17.7957 19.3694 17.5265 19.3839 17.3529 19.2287C17.1782 19.0733 17.163 18.806 17.3179 18.6313L19.8324 15.8027C20.1955 15.3946 20.1843 14.7645 19.8064 14.3688C19.4284 13.9734 18.7984 13.9338 18.3735 14.2788L15.0956 16.9473C13.8684 17.9453 13.3771 19.567 13.8459 21.0787C14.0916 21.8702 14.2161 22.6909 14.2161 23.5191V24.0504H20.2066V22.3695C20.2066 21.1569 20.5127 19.9526 21.0941 18.8885L21.9886 17.2485C22.4952 16.3197 22.7648 15.2704 22.7711 14.2117V9.92826C22.7708 9.21839 22.1932 8.64064 21.4833 8.64051Z" fill="#225165" stroke="#225165" stroke-width="0.2"/>
<path id="Vector_2" d="M2.23705 7.79727C3.41415 7.79749 4.37129 8.75436 4.37129 9.93151V13.2264C4.89137 13.1419 5.44575 13.2681 5.88116 13.6217L9.16006 16.2902L9.16106 16.2912L9.43122 16.5283C10.7278 17.7559 11.2199 19.6034 10.6839 21.3311C10.4636 22.0398 10.3518 22.777 10.3518 23.5194V24.4739C10.3518 24.7081 10.1626 24.8972 9.92851 24.8972H3.09254C2.85844 24.8972 2.6693 24.708 2.6693 24.4739V22.3697C2.66929 21.2994 2.3974 20.2348 1.88484 19.2949L0.989324 17.655C0.409058 16.5899 0.10281 15.3867 0.10281 14.174V9.93151C0.10281 8.75423 1.05976 7.79727 2.23705 7.79727ZM2.23605 8.64376C1.52606 8.64376 0.948552 9.22058 0.9483 9.93051V14.174C0.9483 15.2443 1.21922 16.3089 1.73175 17.2488L2.62727 18.8887C3.20754 19.9538 3.51479 21.157 3.51479 22.3697V24.0507H9.50426V23.5194C9.50426 22.7379 9.61551 21.9621 9.83445 21.2131L9.83045 21.2141L9.87248 21.079C10.3413 19.5685 9.85192 17.9467 8.62375 16.9476L5.34485 14.279C4.92001 13.9343 4.29091 13.9738 3.91302 14.3691C3.53496 14.7647 3.52295 15.3948 3.886 15.8029L6.40046 18.6326L6.45049 18.7016C6.54933 18.8715 6.5184 19.0941 6.36544 19.2299C6.19129 19.3855 5.92405 19.3691 5.7681 19.1949L3.25364 16.3662C2.59905 15.6312 2.61999 14.4969 3.30166 13.7847L3.42974 13.6627C3.46015 13.6363 3.49193 13.6118 3.52379 13.5876V9.93051C3.52354 9.22071 2.94586 8.64397 2.23605 8.64376Z" fill="#225165" stroke="#225165" stroke-width="0.2"/>
<path id="Vector_3" d="M11.6164 0.176853C11.7601 0.0776407 11.9615 0.078113 12.1056 0.176853L12.1727 0.233886L12.3928 0.46502C12.6257 0.693907 12.9146 0.912057 13.4354 1.09438C14.1374 1.34009 15.2638 1.52089 17.2376 1.55665L17.3557 1.56566C17.9386 1.63634 18.3943 2.13622 18.3943 2.73334V4.84756L18.3923 4.84656C18.3554 9.55848 15.9183 13.3013 11.9946 14.6102L11.9916 14.6112C11.9818 14.6142 11.9666 14.619 11.9506 14.6222L11.9496 14.6212C11.9194 14.628 11.89 14.6312 11.8615 14.6312H11.8465C11.8057 14.6299 11.7649 14.6225 11.7244 14.6082C7.77225 13.2891 5.32784 9.50019 5.32772 4.7385V2.73434C5.32772 2.09655 5.84702 1.56842 6.48539 1.55665C8.45957 1.52143 9.58575 1.34103 10.2876 1.09539C10.9815 0.852436 11.2638 0.545209 11.5503 0.233886L11.6164 0.176853ZM11.8605 1.1284C11.5401 1.43605 11.1277 1.73137 10.3756 1.95889C9.57066 2.20239 8.37929 2.36939 6.5014 2.40314C6.32052 2.40643 6.17421 2.55644 6.17421 2.73434V4.7385C6.17433 9.15734 8.30235 12.5087 11.8605 13.7597C15.4184 12.5093 17.5487 9.15903 17.5488 4.7385V2.73334C17.5488 2.5557 17.4025 2.40656 17.2226 2.40314C15.3447 2.36885 14.1535 2.20123 13.3484 1.95789C12.5954 1.73027 12.1815 1.43635 11.8605 1.1284Z" fill="#225165" stroke="#225165" stroke-width="0.2"/>
<path id="Vector_4" d="M14.2069 5.11196C14.3728 4.97953 14.6144 4.98854 14.7682 5.14198C14.9333 5.30709 14.9333 5.5752 14.7682 5.74033L12.0406 8.46891L12.0396 8.46791C11.8739 8.63458 11.6553 8.71806 11.4383 8.71806C11.221 8.71793 11.0022 8.63407 10.8369 8.46891L9.00585 6.63785C8.84095 6.47277 8.84095 6.20458 9.00585 6.0395C9.17091 5.87443 9.43906 5.87455 9.6042 6.0395L11.4353 7.87056H11.4363L11.4383 7.87257C11.4391 7.87179 11.4404 7.87145 11.4413 7.87056L14.1688 5.14198L14.1989 5.11196H14.2069Z" fill="#225165" stroke="#225165" stroke-width="0.2"/>
</g>
</svg>
