<svg width="44" height="45" viewBox="0 0 44 45" fill="none" xmlns="http://www.w3.org/2000/svg">
<g id="Group 1261154379">
<path id="Vector" d="M4.27204 34.8241H39.7276C42.0434 34.8241 43.9399 32.9675 43.9998 30.6517H0.0100351C0.0599443 32.9675 1.95626 34.8241 4.27204 34.8241Z" fill="#366880"/>
<path id="Vector_2" d="M6.04904 20.3508C6.04904 16.388 8.71421 12.8342 12.5173 11.7265L14.7033 11.0876C13.8948 9.77999 13.4157 8.24282 13.4157 6.5858C13.4157 6.20649 13.4356 5.82718 13.4856 5.45787H4.27223C1.91651 5.45787 0 7.37439 0 9.74007V28.6554H6.04903L6.04904 20.3508Z" fill="#366880"/>
<path id="Vector_3" d="M39.7278 5.45824H30.5145C30.5644 5.82756 30.5844 6.20689 30.5844 6.58617C30.5844 8.23316 30.1053 9.77039 29.2967 11.088L31.4828 11.7268C35.2959 12.8348 37.951 16.3884 37.951 20.3512V28.656H44V9.74069C44 7.37501 42.0835 5.45824 39.7278 5.45824Z" fill="#366880"/>
<path id="Vector_4" d="M28.6305 40.7883V36.813H15.3695V40.7883C14.1368 41.0928 13.2184 42.2007 13.2184 43.5284V44.9134H30.7839V43.5284C30.7814 42.1983 29.8633 41.0928 28.6305 40.7883Z" fill="#366880"/>
<path id="Vector_5" d="M28.1289 20.9999C28.1289 21.6487 28.648 22.1778 29.2968 22.1778C29.9456 22.1778 30.4646 21.6488 30.4646 20.9999C30.4646 20.6605 30.3149 20.3511 30.0853 20.1515C29.8757 19.9518 29.6062 19.8321 29.2967 19.8321C29.1171 19.8321 28.9374 19.872 28.7876 19.9518C28.3984 20.1415 28.1289 20.5408 28.1289 20.9999Z" fill="#366880"/>
<path id="Vector_6" d="M14.9029 20.0416C13.8947 20.0416 13.0762 20.8601 13.0762 21.8683V23.8647C13.0762 24.4137 12.637 24.8628 12.078 24.8628C11.529 24.8628 11.0798 24.4137 11.0798 23.8647V21.8683C11.0798 20.2213 12.1378 18.8238 13.6052 18.2848C13.3157 17.1269 13.146 15.2603 14.1342 13.3338L13.0762 13.6432C10.0916 14.5117 8.04534 17.2467 8.04534 20.351V28.5563H35.9549V20.351C35.9549 17.2467 33.9086 14.5117 30.924 13.6432L30.7144 13.5834C31.4731 15.6695 31.0339 17.8655 30.7144 18.9735C31.3533 19.4127 31.7725 20.1614 31.7725 20.9999C31.7725 22.3773 30.6645 23.4853 29.297 23.4853C27.9295 23.4853 26.8215 22.3773 26.8215 20.9999C26.8215 19.822 27.64 18.8338 28.748 18.5843C29.0374 17.646 29.6463 15.0508 28.2788 13.2241L28.2189 13.1342C26.6119 14.7214 24.4159 15.6796 22.0002 15.6796C19.8342 15.6796 17.8478 14.911 16.3006 13.6034C15.0229 15.3902 15.3523 17.2468 15.6218 18.1152C17.3886 18.4546 18.7262 20.0017 18.7262 21.8684V23.8647C18.7262 24.4137 18.277 24.8629 17.728 24.8629C17.169 24.8629 16.7298 24.4137 16.7298 23.8647V21.8684C16.7298 20.8602 15.9111 20.0416 14.9029 20.0416Z" fill="#366880"/>
<path id="Vector_7" d="M28.588 6.58578C28.588 10.2242 25.6383 13.1735 22.0003 13.1735C18.3622 13.1735 15.4126 10.2238 15.4126 6.58578C15.4126 2.9499 18.3622 0 22.0003 0C25.6383 0 28.588 2.94964 28.588 6.58578Z" fill="#366880"/>
</g>
</svg>
