<svg width="20" height="18" viewBox="0 0 20 18" fill="none" xmlns="http://www.w3.org/2000/svg">
<path id="Vector" d="M8.90278 0.770833L8.51736 1.51042L5.96528 6.40278H14.0382L11.4826 1.51042L11.0972 0.770833L12.5764 0L12.9618 0.739583L15.9167 6.40278H17.1701H18.8889H20V8.06944H18.4722L16.1111 17.5139H3.88889L1.52778 8.06944H0V6.40278H1.11111H2.82986H4.08333L7.03819 0.739583L7.42361 0L8.90278 0.770833ZM3.24653 8.06944L5.19097 15.8472H14.809L16.7535 8.06944H3.24653ZM7.77778 10.5694V13.3472V14.1806H6.11111V13.3472V10.5694V9.73611H7.77778V10.5694ZM10.8333 9.73611V10.5694V13.3472V14.1806H9.16667V13.3472V10.5694V9.73611H10.8333ZM13.8889 10.5694V13.3472V14.1806H12.2222V13.3472V10.5694V9.73611H13.8889V10.5694Z" fill="#DDDACE"/>
</svg>
