<svg width="20" height="20" viewBox="0 0 20 20" fill="none" xmlns="http://www.w3.org/2000/svg">
<path id="Vector" d="M15.0441 8.14887C15.0441 7.24338 14.8657 6.34676 14.5192 5.51019C14.1727 4.67363 13.6648 3.91351 13.0245 3.27323C12.3842 2.63295 11.6241 2.12506 10.7876 1.77854C9.95099 1.43202 9.05436 1.25367 8.14887 1.25367C7.24338 1.25367 6.34676 1.43202 5.51019 1.77854C4.67363 2.12506 3.91351 2.63295 3.27323 3.27323C2.63295 3.91351 2.12506 4.67363 1.77854 5.51019C1.43202 6.34676 1.25367 7.24338 1.25367 8.14887C1.25367 9.05436 1.43202 9.95099 1.77854 10.7876C2.12506 11.6241 2.63295 12.3842 3.27323 13.0245C3.91351 13.6648 4.67363 14.1727 5.51019 14.5192C6.34676 14.8657 7.24338 15.0441 8.14887 15.0441C9.05436 15.0441 9.95099 14.8657 10.7876 14.5192C11.6241 14.1727 12.3842 13.6648 13.0245 13.0245C13.6648 12.3842 14.1727 11.6241 14.5192 10.7876C14.8657 9.95099 15.0441 9.05436 15.0441 8.14887ZM13.4496 14.3389C12.0274 15.5612 10.1743 16.2977 8.14887 16.2977C3.6474 16.2977 0 12.6503 0 8.14887C0 3.6474 3.6474 0 8.14887 0C12.6503 0 16.2977 3.6474 16.2977 8.14887C16.2977 10.1743 15.5612 12.0274 14.3389 13.4496L20 19.1146L19.1146 20L13.4496 14.3389Z" fill="white"/>
</svg>
