<svg width="21" height="21" viewBox="0 0 21 21" fill="none" xmlns="http://www.w3.org/2000/svg">
<path id="Subtract" d="M10.501 0C13.3527 0 13.7115 0.0126395 14.8311 0.0635447C15.9479 0.113635 16.7117 0.292194 17.38 0.551729C18.0693 0.819738 18.6556 1.17793 19.2389 1.7621C19.8223 2.34642 20.1815 2.93176 20.4503 3.62205C20.7098 4.28904 20.8865 5.05317 20.9375 6.17089C20.9884 7.29044 21 7.64869 21 10.5C21 13.3514 20.9884 13.7088 20.9375 14.8291C20.8874 15.9469 20.7098 16.7105 20.4503 17.378C20.1815 18.0683 19.8233 18.6545 19.2389 19.2379C18.6545 19.8213 18.0693 20.1805 17.379 20.4493C16.7115 20.7088 15.9479 20.8855 14.8301 20.9365C13.7105 20.9882 13.3523 21 10.501 21C7.64973 21 7.29177 20.9873 6.1719 20.9365C5.05426 20.8856 4.29131 20.7088 3.62305 20.4493C2.9322 20.1805 2.34644 19.8211 1.7621 19.2379C1.17796 18.6548 0.819743 18.0682 0.551729 17.378C0.292153 16.7105 0.114452 15.947 0.0635447 14.8291C0.0118044 13.7097 0 13.3514 0 10.5C6.72862e-07 7.64869 0.0117989 7.29044 0.0635447 6.17089C0.11447 5.05325 0.292176 4.28946 0.551729 3.62205C0.819762 2.93146 1.17785 2.34542 1.7621 1.7621C2.34653 1.17863 2.9322 0.819779 3.62305 0.551729C4.29009 0.292208 5.05416 0.114444 6.1719 0.0635447C7.29169 0.0118202 7.6502 1.37392e-06 10.501 0ZM10.501 1.89121C7.69829 1.89121 7.36531 1.90184 6.25865 1.95274C5.23487 1.99927 4.67755 2.16969 4.30793 2.31383C3.81704 2.50381 3.46775 2.73191 3.10058 3.09957C2.73339 3.46727 2.50568 3.81675 2.31484 4.30692C2.17205 4.67758 2.00039 5.23311 1.95375 6.25663C1.90368 7.36432 1.89323 7.69623 1.89323 10.5C1.89323 13.3038 1.90285 13.6368 1.95375 14.7434C2.00029 15.7671 2.17069 16.3245 2.31484 16.6941C2.50483 17.1841 2.73291 17.5333 3.10058 17.9004C3.46827 18.2676 3.81784 18.4953 4.30793 18.6862C4.67772 18.8302 5.23487 19.0006 6.25865 19.0473C7.36496 19.0982 7.69704 19.1078 10.501 19.1078C13.3049 19.1078 13.6376 19.0982 14.7444 19.0473C15.7679 19.0007 16.3245 18.8303 16.6941 18.6862C17.1843 18.4953 17.5352 18.2674 17.9024 17.9004C18.2694 17.5337 18.4964 17.1839 18.6872 16.6941C18.8304 16.3243 19.0016 15.7671 19.0483 14.7434C19.0992 13.6359 19.1098 13.3038 19.1098 10.5C19.1098 7.69623 19.0992 7.36432 19.0483 6.25663C19.0017 5.23313 18.8313 4.67648 18.6872 4.30692C18.4964 3.81695 18.27 3.46664 17.9024 3.09957C17.5347 2.73231 17.1843 2.50385 16.6941 2.31383C16.3234 2.17105 15.7679 1.99937 14.7444 1.95274C13.6366 1.90267 13.3036 1.89121 10.501 1.89121ZM10.501 5.10879C13.4788 5.10898 15.8921 7.52236 15.8922 10.5C15.8922 13.4778 13.4788 15.892 10.501 15.8922C7.52302 15.8922 5.10879 13.4779 5.10879 10.5C5.10892 7.52224 7.5231 5.10879 10.501 5.10879ZM10.501 7C8.56804 7 7.00114 8.56714 7.00101 10.5C7.00101 12.433 8.56796 14.001 10.501 14.001C12.4339 14.0008 14.001 12.4329 14.001 10.5C14.0009 8.56726 12.4338 7.00019 10.501 7ZM16.1061 3.63516C16.3553 3.63526 16.5999 3.70945 16.8071 3.84798C17.014 3.9865 17.1748 4.18371 17.27 4.41383C17.3652 4.64394 17.3902 4.89684 17.3416 5.14107C17.2929 5.38547 17.173 5.61045 16.9967 5.7866C16.8204 5.96272 16.5956 6.08304 16.3512 6.13156C16.1068 6.17999 15.853 6.15435 15.6229 6.05893C15.3929 5.96346 15.1963 5.80204 15.0581 5.59496C14.9197 5.38776 14.8462 5.14408 14.8463 4.89496C14.8465 4.56094 14.9792 4.24048 15.2154 4.00432C15.4517 3.76817 15.772 3.63532 16.1061 3.63516Z" fill="#DDDACE"/>
</svg>
